<?xml version="1.0" encoding="UTF-8" standalone="no"?>
<!DOCTYPE svg PUBLIC "-//W3C//DTD SVG 1.1//EN" "http://www.w3.org/Graphics/SVG/1.1/DTD/svg11.dtd">
<svg version="1.1" xmlns="http://www.w3.org/2000/svg" xmlns:xlink="http://www.w3.org/1999/xlink" preserveAspectRatio="xMidYMid meet" viewBox="0 0 640 640" width="320" height="320"><defs><path d="M284.35 133.48C284.35 196.35 230.97 247.39 165.22 247.39C99.47 247.39 46.09 196.35 46.09 133.48C46.09 70.61 99.47 19.57 165.22 19.57C230.97 19.57 284.35 70.61 284.35 133.48Z" id="c59SGu8T5q"></path><path d="M292.17 371.74C292.17 416.61 252.92 453.04 204.57 453.04C156.21 453.04 116.96 416.61 116.96 371.74C116.96 326.87 156.21 290.43 204.57 290.43C252.92 290.43 292.17 326.87 292.17 371.74Z" id="b5oKle2Jfd"></path><path d="M481.3 106.52C481.3 132.68 460.65 153.91 435.22 153.91C409.78 153.91 389.13 132.68 389.13 106.52C389.13 80.37 409.78 59.13 435.22 59.13C460.65 59.13 481.3 80.37 481.3 106.52Z" id="i1RP58t0Yq"></path><path d="M606.96 435.22C606.96 531.44 525.72 609.57 425.65 609.57C325.59 609.57 244.35 531.44 244.35 435.22C244.35 338.99 325.59 260.87 425.65 260.87C525.72 260.87 606.96 338.99 606.96 435.22Z" id="b1WVW6s7zO"></path></defs><g><g><g><g><use xlink:href="#c59SGu8T5q" opacity="0.7" fill-opacity="0" stroke="#c5cae9" stroke-width="1" stroke-opacity="1"></use></g></g><g><g><use xlink:href="#b5oKle2Jfd" opacity="0.7" fill-opacity="0" stroke="#c5cae9" stroke-width="1" stroke-opacity="1"></use></g></g><g><g><use xlink:href="#i1RP58t0Yq" opacity="0.7" fill-opacity="0" stroke="#c5cae9" stroke-width="1" stroke-opacity="1"></use></g></g><g><g><use xlink:href="#b1WVW6s7zO" opacity="0.7" fill-opacity="0" stroke="#c5cae9" stroke-width="1" stroke-opacity="1"></use></g></g></g></g></svg>